[Header]
FileType HTR
DataType HTRS
FileVersion 1
NumSegments 48
NumFrames 3
DataFrameRate 30
EulerRotationOrder ZYX
CalibrationUnits mm
RotationUnits Degrees
GlobalAxisofGravity Y
BoneLengthAxis Y
ScaleFactor 1.0
[SegmentNames&Hierarchy]
Wolf	GLOBAL
Becken	Wolf
Bauch	Becken
Bauch_001	Bauch
Brust	Bauch_001
Hals	Brust
Kopf_002	Hals
Kopf	Kopf_002
Unterkiefer	Kopf
Hals_fett	Unterkiefer
Maulunten	Unterkiefer
Mauloben	Kopf
MundW_L	Kopf
MundW_R	Kopf
Augen_con	Kopf
IK_Aug_R	Augen_con
IK_Aug_L	Augen_con
Aug_R	Kopf
aug_L	Kopf
Ohr_L	Kopf
Ohr_R	Kopf
Braun_O_L	Kopf
Braun_O_R	Kopf
aug_lied_O_L	Kopf
aug_lied_O_R	Kopf
aug_lied_U_L	Kopf
aug_lied_U_R	Kopf
Bauch_003	Brust
Schalterplatte_L	Bauch_003
Oberarm_L	Schalterplatte_L
Unterarm_L	Oberarm_L
Vorderpfote_L	Unterarm_L
Schalterplatte_R	Bauch_003
Oberarm_R	Schalterplatte_R
Unterarm_R	Oberarm_R
Vorderpfote_R	Unterarm_R
Schwanz	Becken
Schwanz_001	Schwanz
Schwanz_002	Schwanz_001
Schwanz_003	Schwanz_002
Oberschenkel_L	Becken
Unterschenkel_L	Oberschenkel_L
Pfote1_L	Unterschenkel_L
Pfote2_L	Pfote1_L
Oberschenkel_R	Becken
Unterschenkel_R	Oberschenkel_R
Pfote1_R	Unterschenkel_R
Pfote2_R	Pfote1_R
[BasePosition]
Wolf	0	0	0	0	0	0	1
Becken	0	0	0	0	0	0	1
Bauch	0	0	0	0	0	0	1
Bauch_001	0	0	0	0	0	0	1
Brust	0	0	0	0	0	0	1
Hals	0	0	0	0	0	0	1
Kopf_002	0	0	0	0	0	0	1
Kopf	0	0	0	0	0	0	1
Unterkiefer	0	0	0	0	0	0	1
Hals_fett	0	0	0	0	0	0	1
Maulunten	0	0	0	0	0	0	1
Mauloben	0	0	0	0	0	0	1
MundW_L	0	0	0	0	0	0	1
MundW_R	0	0	0	0	0	0	1
Augen_con	0	0	0	0	0	0	1
IK_Aug_R	0	0	0	0	0	0	1
IK_Aug_L	0	0	0	0	0	0	1
Aug_R	0	0	0	0	0	0	1
aug_L	0	0	0	0	0	0	1
Ohr_L	0	0	0	0	0	0	1
Ohr_R	0	0	0	0	0	0	1
Braun_O_L	0	0	0	0	0	0	1
Braun_O_R	0	0	0	0	0	0	1
aug_lied_O_L	0	0	0	0	0	0	1
aug_lied_O_R	0	0	0	0	0	0	1
aug_lied_U_L	0	0	0	0	0	0	1
aug_lied_U_R	0	0	0	0	0	0	1
Bauch_003	0	0	0	0	0	0	1
Schalterplatte_L	0	0	0	0	0	0	1
Oberarm_L	0	0	0	0	0	0	1
Unterarm_L	0	0	0	0	0	0	1
Vorderpfote_L	0	0	0	0	0	0	1
Schalterplatte_R	0	0	0	0	0	0	1
Oberarm_R	0	0	0	0	0	0	1
Unterarm_R	0	0	0	0	0	0	1
Vorderpfote_R	0	0	0	0	0	0	1
Schwanz	0	0	0	0	0	0	1
Schwanz_001	0	0	0	0	0	0	1
Schwanz_002	0	0	0	0	0	0	1
Schwanz_003	0	0	0	0	0	0	1
Oberschenkel_L	0	0	0	0	0	0	1
Unterschenkel_L	0	0	0	0	0	0	1
Pfote1_L	0	0	0	0	0	0	1
Pfote2_L	0	0	0	0	0	0	1
Oberschenkel_R	0	0	0	0	0	0	1
Unterschenkel_R	0	0	0	0	0	0	1
Pfote1_R	0	0	0	0	0	0	1
Pfote2_R	0	0	0	0	0	0	1
[Wolf]
1	0	0	0	-90	-0	0	1.0
2	0	0	0	-90	-0	0	1.0
3	0	0	0	-90	-0	0	1.0
[Becken]
1	0	0.5621799231	0.420330137	-2.003211021	169.3897705	89.27989197	1.0
2	0	0.5621799231	0.4225141406	-1.985552073	169.3895569	89.28623962	1.0
3	0	0.5621799231	0.4280041456	-1.941103935	169.3890076	89.30220795	1.0
[Bauch]
1	0.9404072165	7.335228958e-08	-0.3559131622	-9.70548399e-07	12.60522652	-8.885302805e-08	1.0
2	0.9404072165	7.335228958e-08	-0.3559131622	-9.70548399e-07	12.60522652	-8.885302805e-08	1.0
3	0.9404072165	7.335228958e-08	-0.3559131622	-9.70548399e-07	12.60522652	-8.885302805e-08	1.0
[Bauch_001]
1	1.081897616	8.323696221e-08	1.180524034e-08	-2.503413032e-09	2.360082865	-2.670307531e-08	1.0
2	1.081897616	8.323696221e-08	1.180524034e-08	-2.503413032e-09	2.360082865	-2.670307531e-08	1.0
3	1.081897616	8.323696221e-08	1.180524034e-08	-2.503413032e-09	2.360082865	-2.670307531e-08	1.0
[Brust]
1	1.069831252	8.440110832e-08	3.139576066e-08	5.110827715e-06	10.76275349	-3.549572648e-05	1.0
2	1.069831252	8.440110832e-08	3.139576066e-08	5.110827715e-06	10.85140514	-3.549572648e-05	1.0
3	1.069831252	8.440110832e-08	3.139576066e-08	5.110827715e-06	11.07368755	-3.549572648e-05	1.0
[Hals]
1	1.258022308	9.662471712e-08	0.6079561114	-4.810633527e-06	46.87745667	-2.341890877e-06	1.0
2	1.258022308	9.662471712e-08	0.6079561114	-4.810633527e-06	46.87745667	-2.341890877e-06	1.0
3	1.258022308	9.662471712e-08	0.6079561114	-4.810633527e-06	46.87745667	-2.341890877e-06	1.0
[Kopf_002]
1	1.752595186	3.012712114e-05	0.265181601	0.006653386634	-165.1497192	0.002557684667	1.0
2	1.752595186	3.012712114e-05	0.265181601	0.006653386634	-165.1497192	0.002557684667	1.0
3	1.752595186	3.012712114e-05	0.265181601	0.006653386634	-165.1497192	0.002557684667	1.0
[Kopf]
1	1.015782118	6.868503988e-08	-5.515175872e-08	0.06871989369	123.2280426	-0.02605196461	1.0
2	1.015782118	6.868503988e-08	-5.515175872e-08	0.06857214868	123.0508881	-0.02617608011	1.0
3	1.015782118	6.868503988e-08	-5.515175872e-08	0.068191953	122.6066132	-0.02649601921	1.0
[Unterkiefer]
1	0.6370447874	0.004552732222	0.4060618579	5.412721634	-68.3888092	-3.093543291	1.0
2	0.6370447874	0.004552732222	0.4060618579	5.412721634	-68.3888092	-3.093543291	1.0
3	0.6370447874	0.004552732222	0.4060618579	5.412721634	-68.3888092	-3.093543291	1.0
[Hals_fett]
1	0.2998305857	0.007747137919	0.1206372604	-5.071650982	-59.35961151	5.585564613	1.0
2	0.2998305857	0.007747137919	0.1206372604	-5.071650982	-59.35961151	5.585564613	1.0
3	0.2998305857	0.007747137919	0.1206372604	-5.071650982	-59.35961151	5.585564613	1.0
[Maulunten]
1	0.0831861794	-0.007747565862	-0.1206544712	-3.322209358	38.97271347	-0.8718761206	1.0
2	0.0831861794	-0.007747565862	-0.1206544712	-3.322209358	38.97271347	-0.8718761206	1.0
3	0.0831861794	-0.007747565862	-0.1206544712	-3.322209358	38.97271347	-0.8718761206	1.0
[Mauloben]
1	0.9101490974	0.0004056713078	0.4003697634	-0.1032672822	-28.7776947	0.03543138877	1.0
2	0.9101490974	0.0004056713078	0.4003697634	-0.1032672822	-28.7776947	0.03543138877	1.0
3	0.9101490974	0.0004056713078	0.4003697634	-0.1032672822	-28.7776947	0.03543138877	1.0
[MundW_L]
1	0.673060894	-0.3618555963	0.3751283586	-179.8370972	-17.94885063	24.713974	1.0
2	0.673060894	-0.3618555963	0.3751283586	-179.8370972	-17.94885063	24.713974	1.0
3	0.673060894	-0.3618555963	0.3751283586	-179.8370972	-17.94885063	24.713974	1.0
[MundW_R]
1	0.6732419133	0.3627035022	0.3739836514	179.665329	-18.02427101	-24.69083595	1.0
2	0.6732419133	0.3627035022	0.3739836514	179.665329	-18.02427101	-24.69083595	1.0
3	0.6732419133	0.3627035022	0.3739836514	179.665329	-18.02427101	-24.69083595	1.0
[Augen_con]
1	1.807373166	-0.0001604110003	0.183581531	0.0982221961	157.1545258	0.02385941334	1.0
2	1.807373166	-0.0001604110003	0.183581531	0.0982221961	157.1545258	0.02385941334	1.0
3	1.807373166	-0.0001604110003	0.183581531	0.0982221961	157.1545258	0.02385941334	1.0
[IK_Aug_R]
1	0.3461295962	0.2943200469	-1.071020961e-07	-0.4194760025	-4.963055134	165.6946411	1.0
2	0.3461295962	0.2943200469	-1.071020961e-07	-0.4194760025	-4.963055134	165.6946411	1.0
3	0.3461295962	0.2943200469	-1.071020961e-07	-0.4194760025	-4.963055134	165.6946411	1.0
[IK_Aug_L]
1	0.3461301029	-0.2943200171	-1.967418939e-07	0.4194771945	-4.963055134	-165.6946411	1.0
2	0.3461301029	-0.2943200171	-1.967418939e-07	0.4194771945	-4.963055134	-165.6946411	1.0
3	0.3461301029	-0.2943200171	-1.967418939e-07	0.4194771945	-4.963055134	-165.6946411	1.0
[Aug_R]
1	1.035154939	0.2207805216	-0.09605780989	176.004776	-17.29167175	12.85548782	1.0
2	1.035154939	0.2207805216	-0.09605780989	176.004776	-17.29167175	12.85548782	1.0
3	1.035154939	0.2207805216	-0.09605780989	176.004776	-17.29167175	12.85548782	1.0
[aug_L]
1	1.03504467	-0.2215988934	-0.09535907209	-176.1891022	-17.33180046	-12.83102131	1.0
2	1.03504467	-0.2215988934	-0.09535907209	-176.1891022	-17.33180046	-12.83102131	1.0
3	1.03504467	-0.2215988934	-0.09535907209	-176.1891022	-17.33180046	-12.83102131	1.0
[Ohr_L]
1	0.6407766938	-0.3659991026	-0.6893324852	-24.34923935	53.07765961	-15.02013397	1.0
2	0.6407766938	-0.3659991026	-0.6893324852	-24.34923935	53.07765961	-15.02013397	1.0
3	0.6407766938	-0.3659991026	-0.6893324852	-24.34923935	53.07765961	-15.02013397	1.0
[Ohr_R]
1	0.640958488	0.36349985	-0.690484941	24.05785561	53.12415695	14.75856686	1.0
2	0.640958488	0.36349985	-0.690484941	24.05785561	53.12415695	14.75856686	1.0
3	0.640958488	0.36349985	-0.690484941	24.05785561	53.12415695	14.75856686	1.0
[Braun_O_L]
1	0.9801894426	-0.3706049323	-0.3292509615	-143.317215	-34.69636154	52.39493942	1.0
2	0.9801894426	-0.3706049323	-0.3292509615	-143.317215	-34.69636154	52.39493942	1.0
3	0.9801894426	-0.3706049323	-0.3292509615	-143.317215	-34.69636154	52.39493942	1.0
[Braun_O_R]
1	0.9803640842	0.3690741956	-0.3304226995	143.1826782	-34.83971405	-52.34676361	1.0
2	0.9803640842	0.3690741956	-0.3304226995	143.1826782	-34.83971405	-52.34676361	1.0
3	0.9803640842	0.3690741956	-0.3304226995	143.1826782	-34.83971405	-52.34676361	1.0
[aug_lied_O_L]
1	1.038882375	-0.3271433413	-0.1608109176	-175.8613434	-20.15596771	60.31667709	1.0
2	1.038882375	-0.3271433413	-0.1608109176	-175.8613434	-20.15596771	60.31667709	1.0
3	1.038882375	-0.3271433413	-0.1608109176	-175.8613434	-20.15596771	60.31667709	1.0
[aug_lied_O_R]
1	1.039044976	0.326115787	-0.1618431658	175.7657928	-20.31324005	-60.31218338	1.0
2	1.039044976	0.326115787	-0.1618431658	175.7657928	-20.31324005	-60.31218338	1.0
3	1.039044976	0.326115787	-0.1618431658	175.7657928	-20.31324005	-60.31218338	1.0
[aug_lied_U_L]
1	1.02191329	-0.3312865198	-0.1338392347	-159.8099365	-28.7482872	60.17462158	1.0
2	1.02191329	-0.3312865198	-0.1338392347	-159.8099365	-28.7482872	60.17462158	1.0
3	1.02191329	-0.3312865198	-0.1338392347	-159.8099365	-28.7482872	60.17462158	1.0
[aug_lied_U_R]
1	1.022078872	0.3303525448	-0.1348842829	159.7071381	-28.90532303	-60.15359116	1.0
2	1.022078872	0.3303525448	-0.1348842829	159.7071381	-28.90532303	-60.15359116	1.0
3	1.022078872	0.3303525448	-0.1348842829	159.7071381	-28.90532303	-60.15359116	1.0
[Bauch_003]
1	1.276869178	9.429641068e-08	-0.6079563498	-3.842957085e-06	-137.6799469	1.008550771e-05	1.0
2	1.276869178	9.429641068e-08	-0.6079563498	-3.842957085e-06	-137.6799469	1.008550771e-05	1.0
3	1.276869178	9.429641068e-08	-0.6079563498	-3.842957085e-06	-137.6799469	1.008550771e-05	1.0
[Schalterplatte_L]
1	0.9800760746	-0.3790699244	-0.1091477349	-51.14891052	78.54904938	-78.98104095	1.0
2	0.9787848592	-0.3794746101	-0.1079291776	-50.03901672	78.50835419	-77.86543274	1.0
3	0.9755206108	-0.3798792362	-0.1047948152	-47.27475739	78.38105011	-75.08621216	1.0
[Oberarm_L]
1	1.418636799	1.443549991e-07	9.778887033e-08	-44.124897	-53.3486557	51.38922882	1.0
2	1.418636799	1.443549991e-07	9.778887033e-08	-44.20718765	-53.41914368	51.50203323	1.0
3	1.418636799	1.443549991e-07	9.778887033e-08	-44.41672897	-53.5947876	51.78617859	1.0
[Unterarm_L]
1	2.028227329	8.847563748e-08	-3.725290298e-07	0.2848600745	49.23458099	0.1908790171	1.0
2	2.028227329	8.847563748e-08	-3.725290298e-07	0.2955265641	49.1445694	0.1989896297	1.0
3	2.028227329	8.847563748e-08	-3.725290298e-07	0.3197498322	48.90787888	0.2169712186	1.0
[Vorderpfote_L]
1	1.705947638	1.746229827e-07	-5.704351125e-08	-1.489112377	54.38452911	-0.1938450038	1.0
2	1.705947638	1.746229827e-07	-5.704351125e-08	-1.503962755	54.89570999	-0.2147726715	1.0
3	1.705947638	1.746229827e-07	-5.704351125e-08	-1.54474628	56.17419434	-0.2708315253	1.0
[Schalterplatte_R]
1	1.126118541	0.4077700973	0.1865276098	5.637464523	68.49491882	33.06568527	1.0
2	1.121702671	0.4069301188	0.183988139	5.773070812	68.69789124	33.34778976	1.0
3	1.110646486	0.4060901403	0.1775199324	6.215022564	69.24912262	34.15418625	1.0
[Oberarm_R]
1	1.418636322	-1.210719205e-07	-7.450580597e-08	65.96826172	-59.03591537	-79.18119812	1.0
2	1.418636322	-1.210719205e-07	-7.450580597e-08	67.01795197	-59.26515198	-80.43662262	1.0
3	1.418636322	-1.210719205e-07	-7.450580597e-08	69.74358368	-59.76470947	-83.67874146	1.0
[Unterarm_R]
1	2.028231859	1.676380634e-07	-3.608874977e-07	-2.578872919	46.78834915	-2.719379902	1.0
2	2.028231859	1.676380634e-07	-3.608874977e-07	-2.671979189	47.35900497	-2.834011316	1.0
3	2.028231859	1.676380634e-07	-3.608874977e-07	-2.925126314	48.79820251	-3.143918514	1.0
[Vorderpfote_R]
1	1.705937624	7.799826562e-08	1.461012289e-07	5.682293892	87.0707016	5.31871748	1.0
2	1.705937624	7.799826562e-08	1.461012289e-07	3.716818571	85.97695923	3.495488644	1.0
3	1.705937624	7.799826562e-08	1.461012289e-07	1.587848306	83.10873413	1.73411715	1.0
[Schwanz]
1	-0.1725832224	-1.382431947e-08	0.1059697866	-2.220226997e-05	-111.4825287	2.181978562e-05	1.0
2	-0.1710730195	-1.382431947e-08	0.1051249206	-2.220226997e-05	-111.65168	2.181978562e-05	1.0
3	-0.1672987789	-1.382431947e-08	0.1024135947	-2.220226997e-05	-112.0759125	2.181978562e-05	1.0
[Schwanz_001]
1	0.9104328156	6.868503988e-08	7.788912626e-08	-2.408194405e-06	4.35599041	-5.75290926e-07	1.0
2	0.9104328156	6.868503988e-08	7.788912626e-08	-2.408194405e-06	4.586399078	-5.75290926e-07	1.0
3	0.9104328156	6.868503988e-08	7.788912626e-08	-2.408194405e-06	5.164344311	-5.75290926e-07	1.0
[Schwanz_002]
1	0.7855660319	5.704351125e-08	-1.185253495e-07	8.174235973e-07	-11.70932007	-1.362372615e-07	1.0
2	0.7855660319	5.704351125e-08	-1.185253495e-07	8.174235973e-07	-11.54249859	-1.362372615e-07	1.0
3	0.7855660319	5.704351125e-08	-1.185253495e-07	8.174235973e-07	-11.1241436	-1.362372615e-07	1.0
[Schwanz_003]
1	0.8350355029	6.286426668e-08	-2.072192729e-07	-2.187832479e-06	-0.3344976306	1.867661581e-07	1.0
2	0.8350355029	6.286426668e-08	-2.072192729e-07	-2.187832479e-06	-0.422804147	1.867661581e-07	1.0
3	0.8350355029	6.286426668e-08	-2.072192729e-07	-2.187832479e-06	-0.6442477107	1.867661581e-07	1.0
[Oberschenkel_L]
1	0.4639753699	-0.5836999416	0.1218086779	-68.56203461	-95.39861298	72.62068176	1.0
2	0.4681814909	-0.5836999416	0.1175442487	-75.41046906	-95.25515747	79.4985199	1.0
3	0.4787215292	-0.5836999416	0.1068541408	-93.77973175	-95.37184906	97.94501495	1.0
[Unterschenkel_L]
1	1.686439037	6.984918599e-08	-6.053597446e-08	-11.58692455	-38.9923172	16.3922081	1.0
2	1.686439037	6.984918599e-08	-6.053597446e-08	-11.93118095	-40.23229599	16.80156898	1.0
3	1.686439037	6.984918599e-08	-6.053597446e-08	-12.91823196	-43.34305191	17.95516205	1.0
[Pfote1_L]
1	1.190900326	6.519258022e-08	1.396983862e-07	2.697677612	21.1172924	-4.948381424	1.0
2	1.190900326	6.519258022e-08	1.396983862e-07	2.686902761	21.49270821	-4.9779706	1.0
3	1.190900326	6.519258022e-08	1.396983862e-07	2.659655571	22.39823341	-5.050168991	1.0
[Pfote2_L]
1	0.9876257777	7.450580597e-08	-5.587935092e-08	-7.529660225	76.4988327	-11.76031017	1.0
2	0.9876257777	7.450580597e-08	-5.587935092e-08	-8.194869995	76.98166656	-12.44474316	1.0
3	0.9876257777	7.450580597e-08	-5.587935092e-08	-10.21578884	78.16893768	-14.52034473	1.0
[Oberschenkel_R]
1	0.7394316196	0.5837000012	0.07773606479	-13.63072205	-55.55155182	7.916181564	1.0
2	0.7369342446	0.5837000012	0.07822075486	-13.67151546	-55.72401428	7.965586662	1.0
3	0.7305575609	0.5837000012	0.07981128991	-13.78041458	-56.17262268	8.096843719	1.0
[Unterschenkel_R]
1	1.68644917	1.164153218e-07	2.793967901e-08	19.2986393	-46.65136719	-29.72805023	1.0
2	1.68644917	1.164153218e-07	2.793967901e-08	19.217659	-46.55265427	-29.62768364	1.0
3	1.68644917	1.164153218e-07	2.793967901e-08	19.0134182	-46.30102539	-29.37552071	1.0
[Pfote1_R]
1	1.190900087	1.856824383e-07	4.190951941e-08	-2.342871666	35.90838242	5.774245262	1.0
2	1.190900087	1.856824383e-07	4.190951941e-08	-2.342167139	35.89413071	5.775445938	1.0
3	1.190900087	1.856824383e-07	4.190951941e-08	-2.340495348	35.8603363	5.778299809	1.0
[Pfote2_R]
1	0.9876258373	6.984919754e-09	6.635672634e-08	12.03306866	80.79967499	19.43141365	1.0
2	0.9876258373	6.984919754e-09	6.635672634e-08	12.05839634	80.87192535	19.44306564	1.0
3	0.9876258373	6.984919754e-09	6.635672634e-08	12.13608074	81.06325531	19.48666573	1.0
[EndOfFile]
